<svg width="397" height="117" viewBox="0 0 397 117" fill="none" xmlns="http://www.w3.org/2000/svg">
<path d="M19 43V112H61V107H41V30L19 43Z" fill="#696A6C"/>
<path d="M70 107V112H77V107H70Z" fill="#696A6C"/>
<path d="M78 77V112H118V107H98V69L108 72.5V47.5L91 37V72L78 77Z" fill="#696A6C"/>
<path d="M129 107V112H140V107H129Z" fill="#696A6C"/>
<path d="M6 107V112H18V107H6Z" fill="#696A6C"/>
<path d="M62 42V112H69V0L48 15.5V33.5L62 42Z" fill="#1155AC"/>
<path d="M119 92V112H128V94L119 92Z" fill="#1155AC"/>
<path d="M0 117V113H147V117H0Z" fill="#1155AC"/>
<path d="M201.929 42.8267C201.588 39.3892 200.125 36.7187 197.54 34.8153C194.955 32.9119 191.446 31.9602 187.014 31.9602C184.003 31.9602 181.46 32.3864 179.386 33.2386C177.313 34.0625 175.722 35.2131 174.614 36.6903C173.534 38.1676 172.994 39.8438 172.994 41.7188C172.938 43.2812 173.264 44.6449 173.974 45.8097C174.713 46.9744 175.722 47.983 177 48.8352C178.278 49.6591 179.756 50.3835 181.432 51.0085C183.108 51.6051 184.898 52.1165 186.801 52.5426L194.642 54.4176C198.449 55.2699 201.943 56.4062 205.125 57.8267C208.307 59.2472 211.063 60.9943 213.392 63.0682C215.722 65.142 217.526 67.5852 218.804 70.3977C220.111 73.2102 220.778 76.4347 220.807 80.071C220.778 85.4119 219.415 90.0426 216.716 93.9631C214.045 97.8551 210.182 100.881 205.125 103.04C200.097 105.17 194.031 106.236 186.929 106.236C179.884 106.236 173.747 105.156 168.52 102.997C163.321 100.838 159.259 97.642 156.332 93.4091C153.435 89.1477 151.915 83.8778 151.773 77.5994H169.628C169.827 80.5256 170.665 82.9687 172.142 84.929C173.648 86.8608 175.651 88.3239 178.151 89.3182C180.679 90.2841 183.534 90.767 186.716 90.767C189.841 90.767 192.554 90.3125 194.855 89.4034C197.185 88.4943 198.989 87.2301 200.267 85.6108C201.545 83.9915 202.185 82.1307 202.185 80.0284C202.185 78.0682 201.602 76.4205 200.438 75.0852C199.301 73.75 197.625 72.6136 195.409 71.6761C193.222 70.7386 190.537 69.8864 187.355 69.1193L177.852 66.733C170.494 64.9432 164.685 62.1449 160.423 58.3381C156.162 54.5312 154.045 49.4034 154.074 42.9545C154.045 37.6705 155.452 33.054 158.293 29.1051C161.162 25.1562 165.097 22.0739 170.097 19.858C175.097 17.642 180.778 16.5341 187.142 16.5341C193.619 16.5341 199.273 17.642 204.102 19.858C208.96 22.0739 212.739 25.1562 215.438 29.1051C218.136 33.054 219.528 37.6278 219.614 42.8267H201.929ZM215.218 105V17.7273H249.65C256.269 17.7273 261.908 18.9915 266.567 21.5199C271.227 24.0199 274.778 27.5 277.221 31.9602C279.692 36.392 280.928 41.5057 280.928 47.3011C280.928 53.0966 279.678 58.2102 277.178 62.642C274.678 67.0739 271.056 70.5256 266.312 72.9972C261.596 75.4687 255.886 76.7045 249.181 76.7045H227.235V61.9176H246.198C249.749 61.9176 252.675 61.3068 254.977 60.0852C257.306 58.8352 259.039 57.1165 260.175 54.929C261.34 52.7131 261.923 50.1705 261.923 47.3011C261.923 44.4034 261.34 41.875 260.175 39.7159C259.039 37.5284 257.306 35.8381 254.977 34.6449C252.647 33.4233 249.692 32.8125 246.113 32.8125H233.67V105H215.218Z" fill="#1155AC"/>
<path d="M325.624 39.5455C325.112 35.2273 323.038 31.875 319.402 29.4886C315.766 27.1023 311.305 25.9091 306.021 25.9091C302.158 25.9091 298.777 26.5341 295.879 27.7841C293.01 29.0341 290.766 30.7528 289.146 32.9403C287.555 35.1278 286.76 37.6136 286.76 40.3977C286.76 42.7273 287.314 44.7301 288.422 46.4062C289.558 48.054 291.007 49.4318 292.768 50.5398C294.53 51.6193 296.376 52.5142 298.308 53.2244C300.24 53.9062 302.016 54.4602 303.635 54.8864L312.499 57.2727C314.771 57.8693 317.3 58.6932 320.084 59.7443C322.896 60.7955 325.581 62.2301 328.138 64.0483C330.723 65.8381 332.854 68.1392 334.53 70.9517C336.206 73.7642 337.044 77.2159 337.044 81.3068C337.044 86.0227 335.808 90.2841 333.337 94.0909C330.893 97.8977 327.314 100.923 322.598 103.168C317.911 105.412 312.214 106.534 305.51 106.534C299.26 106.534 293.848 105.526 289.274 103.509C284.729 101.491 281.149 98.679 278.536 95.071C275.95 91.4631 274.487 87.2727 274.146 82.5H285.055C285.339 85.7955 286.447 88.5227 288.379 90.6818C290.339 92.8125 292.811 94.4034 295.794 95.4545C298.805 96.4773 302.044 96.9886 305.51 96.9886C309.544 96.9886 313.166 96.3352 316.376 95.0284C319.587 93.6932 322.129 91.8466 324.004 89.4886C325.879 87.1023 326.817 84.3182 326.817 81.1364C326.817 78.2386 326.007 75.8807 324.388 74.0625C322.768 72.2443 320.638 70.767 317.996 69.6307C315.354 68.4943 312.499 67.5 309.43 66.6477L298.692 63.5795C291.874 61.6193 286.476 58.821 282.499 55.1847C278.521 51.5483 276.533 46.7898 276.533 40.9091C276.533 36.0227 277.854 31.7614 280.496 28.125C283.166 24.4602 286.746 21.6193 291.234 19.6023C295.751 17.5568 300.794 16.5341 306.362 16.5341C311.987 16.5341 316.987 17.5426 321.362 19.5597C325.737 21.5483 329.203 24.2756 331.76 27.7415C334.345 31.2074 335.709 35.142 335.851 39.5455H325.624ZM336.42 105V17.7273H388.749V27.1023H346.988V56.5909H384.829V65.9659H346.988V105H336.42Z" fill="#696A6C"/>
<path d="M201.929 42.8267C201.588 39.3892 200.125 36.7187 197.54 34.8153C194.955 32.9119 191.446 31.9602 187.014 31.9602C184.003 31.9602 181.46 32.3864 179.386 33.2386C177.313 34.0625 175.722 35.2131 174.614 36.6903C173.534 38.1676 172.994 39.8438 172.994 41.7188C172.938 43.2812 173.264 44.6449 173.974 45.8097C174.713 46.9744 175.722 47.983 177 48.8352C178.278 49.6591 179.756 50.3835 181.432 51.0085C183.108 51.6051 184.898 52.1165 186.801 52.5426L194.642 54.4176C198.449 55.2699 201.943 56.4062 205.125 57.8267C208.307 59.2472 211.063 60.9943 213.392 63.0682C215.722 65.142 217.526 67.5852 218.804 70.3977C220.111 73.2102 220.778 76.4347 220.807 80.071C220.778 85.4119 219.415 90.0426 216.716 93.9631C214.045 97.8551 210.182 100.881 205.125 103.04C200.097 105.17 194.031 106.236 186.929 106.236C179.884 106.236 173.747 105.156 168.52 102.997C163.321 100.838 159.259 97.642 156.332 93.4091C153.435 89.1477 151.915 83.8778 151.773 77.5994H169.628C169.827 80.5256 170.665 82.9687 172.142 84.929C173.648 86.8608 175.651 88.3239 178.151 89.3182C180.679 90.2841 183.534 90.767 186.716 90.767C189.841 90.767 192.554 90.3125 194.855 89.4034C197.185 88.4943 198.989 87.2301 200.267 85.6108C201.545 83.9915 202.185 82.1307 202.185 80.0284C202.185 78.0682 201.602 76.4205 200.438 75.0852C199.301 73.75 197.625 72.6136 195.409 71.6761C193.222 70.7386 190.537 69.8864 187.355 69.1193L177.852 66.733C170.494 64.9432 164.685 62.1449 160.423 58.3381C156.162 54.5312 154.045 49.4034 154.074 42.9545C154.045 37.6705 155.452 33.054 158.293 29.1051C161.162 25.1562 165.097 22.0739 170.097 19.858C175.097 17.642 180.778 16.5341 187.142 16.5341C193.619 16.5341 199.273 17.642 204.102 19.858C208.96 22.0739 212.739 25.1562 215.438 29.1051C218.136 33.054 219.528 37.6278 219.614 42.8267H201.929ZM215.218 105V17.7273H249.65C256.269 17.7273 261.908 18.9915 266.567 21.5199C271.227 24.0199 274.778 27.5 277.221 31.9602C279.692 36.392 280.928 41.5057 280.928 47.3011C280.928 53.0966 279.678 58.2102 277.178 62.642C274.678 67.0739 271.056 70.5256 266.312 72.9972C261.596 75.4687 255.886 76.7045 249.181 76.7045H227.235V61.9176H246.198C249.749 61.9176 252.675 61.3068 254.977 60.0852C257.306 58.8352 259.039 57.1165 260.175 54.929C261.34 52.7131 261.923 50.1705 261.923 47.3011C261.923 44.4034 261.34 41.875 260.175 39.7159C259.039 37.5284 257.306 35.8381 254.977 34.6449C252.647 33.4233 249.692 32.8125 246.113 32.8125H233.67V105H215.218Z" fill="#1155AC"/>
</svg>
